<svg xmlns="http://www.w3.org/2000/svg" viewBox="0 0 200 200" width="200" height="200">
  <defs>
    <linearGradient id="creamFur" x1="0%" y1="0%" x2="100%" y2="100%">
      <stop offset="0%" stop-color="#FFFDF9"/>
      <stop offset="100%" stop-color="#F4E9D8"/>
    </linearGradient>
  </defs>
  <!-- Head -->
  <ellipse cx="90" cy="95" rx="60" ry="50" fill="url(#creamFur)" stroke="#E0D5C1" stroke-width="2"/>
  <!-- Ears -->
  <polygon points="45,65 30,20 70,45" fill="#F4E9D8"/>
  <polygon points="47,60 38,30 65,47" fill="#FFB6C1"/>
  <polygon points="135,65 150,20 110,45" fill="#F4E9D8"/>
  <polygon points="133,60 142,30 115,47" fill="#FFB6C1"/>
  <!-- Giant Happy Tears Eyes -->
  <circle cx="68" cy="85" r="14" fill="#2C3E50"/>
  <ellipse cx="65" cy="80" rx="5" ry="7" fill="#FFF"/>
  <path d="M62 95 C55 105 52 125 58 135 C64 125 64 105 62 95" fill="#5DADE2" opacity="0.9"/>
  <circle cx="112" cy="85" r="14" fill="#2C3E50"/>
  <ellipse cx="109" cy="80" rx="5" ry="7" fill="#FFF"/>
  <path d="M118 95 C125 105 128 125 122 135 C116 125 116 105 118 95" fill="#5DADE2" opacity="0.9"/>
  <!-- Wobbly Emotional Smile -->
  <polygon points="90,95 86,90 94,90" fill="#FF69B4"/>
  <path d="M78 102 Q84 108 90 102 Q96 108 102 102" stroke="#333" stroke-width="3" fill="none" stroke-linecap="round"/>
  <!-- BIG THUMBS UP PAW 👍 -->
  <g transform="translate(135, 95)">
    <circle cx="20" cy="30" r="18" fill="#FFFDF9" stroke="#E0D5C1" stroke-width="2"/>
    <!-- Thumb pointing up -->
    <path d="M14 25 C14 8 26 8 26 22 L26 35 C26 40 14 40 14 35 Z" fill="#FFFDF9" stroke="#E0D5C1" stroke-width="2"/>
    <!-- Toe beans -->
    <circle cx="20" cy="16" r="3" fill="#FFB6C1"/>
    <circle cx="26" cy="28" r="2.5" fill="#FFB6C1"/>
    <circle cx="22" cy="35" r="2.5" fill="#FFB6C1"/>
    <circle cx="15" cy="35" r="2.5" fill="#FFB6C1"/>
  </g>
  <!-- Sparkles -->
  <polygon points="160,40 163,48 171,51 163,54 160,62 157,54 149,51 157,48" fill="#FFD700"/>
  <polygon points="30,80 32,85 37,87 32,89 30,94 28,89 23,87 28,85" fill="#FF69B4"/>
</svg>
